<svg xmlns="http://www.w3.org/2000/svg" width="737" height="453" viewBox="0 0 737 453" version="1.1"><path d="M 552.607 80.295 C 560.691 84.635, 567.603 91.960, 571.689 100.518 C 575.413 108.319, 575.498 108.750, 575.423 119.500 C 575.366 127.715, 574.821 132.145, 573.271 137 C 568.669 151.408, 563.510 162.825, 559.088 168.389 C 557.390 170.526, 556 172.751, 556 173.334 C 556 174.338, 555.192 175.682, 548.537 185.750 C 544.737 191.500, 543.348 191.213, 542.797 184.566 C 542.256 178.047, 535.645 165.880, 529.071 159.306 C 519.250 149.485, 500.446 140.322, 481 135.880 C 461.737 131.481, 427.272 129.893, 405.500 132.403 C 378.106 135.561, 373.458 136.173, 370 137.081 C 359.419 139.860, 340.931 144.293, 337.201 144.946 C 334.837 145.359, 332.384 146.216, 331.751 146.849 C 331.118 147.482, 329.903 148, 329.052 148 C 326.648 148, 302.285 155.891, 294.741 159.113 C 291.024 160.701, 287.305 162, 286.478 162 C 285.650 162, 284.191 162.400, 283.236 162.889 C 279.590 164.756, 270.951 168.424, 259.535 172.952 C 255.155 174.690, 251.105 176.496, 250.535 176.966 C 249.966 177.436, 247.816 178.136, 245.759 178.520 C 243.701 178.905, 242.230 179.563, 242.489 179.982 C 242.989 180.792, 235.917 182.250, 235.160 181.493 C 234.307 180.641, 237.258 178, 239.063 178 C 240.064 178, 241.171 177.532, 241.525 176.959 C 242.300 175.705, 248.995 171.298, 254.500 168.417 C 256.700 167.266, 263.749 163.564, 270.165 160.191 C 279.893 155.076, 298.446 146.255, 311.500 140.538 C 340.507 127.835, 375.877 117.116, 405.856 111.945 C 412.102 110.868, 417.594 109.751, 418.059 109.464 C 418.524 109.176, 427.407 108.499, 437.799 107.959 C 479.315 105.802, 511.600 111.756, 530.895 125.126 C 535.741 128.484, 544.284 136.920, 549.503 143.500 C 550.975 145.356, 551.041 144.964, 550.421 138.031 C 549.465 127.342, 545.013 117.358, 537.545 109.157 C 533.497 104.712, 523.476 98.209, 518.500 96.797 C 516.300 96.173, 514.072 95.289, 513.550 94.831 C 513.027 94.374, 511.761 94, 510.735 94 C 509.710 94, 506.762 93.150, 504.185 92.111 C 489.740 86.288, 448.035 85.970, 420.500 91.474 C 399.718 95.628, 391.889 97.463, 384 100.032 C 380.975 101.017, 375.800 102.572, 372.500 103.488 C 369.200 104.404, 365.600 105.567, 364.500 106.073 C 361.815 107.308, 349.004 112.029, 346.500 112.706 C 338.747 114.801, 292.991 136.838, 280.921 144.290 C 278.952 145.506, 275.883 147.400, 274.100 148.500 C 272.318 149.600, 268.295 152.342, 265.160 154.594 C 262.026 156.845, 257.895 159.444, 255.981 160.370 C 254.066 161.295, 247.100 166.086, 240.500 171.017 C 233.900 175.947, 228.162 179.986, 227.750 179.991 C 225.820 180.015, 227.374 178.158, 230.980 176.131 C 233.170 174.901, 235.532 173.113, 236.230 172.158 C 237.871 169.915, 249.543 161, 250.840 161 C 251.385 161, 254.007 158.913, 256.666 156.363 C 260.446 152.737, 260.750 152.247, 258.061 154.113 C 256.170 155.426, 248.070 160.947, 240.061 166.382 C 211.971 185.446, 209.084 188.131, 199.122 204.463 C 196.962 208.005, 195.070 210, 193.872 210 C 192.242 210, 192 209.191, 192 203.750 C 191.999 197.501, 191.998 197.499, 187.057 193.244 C 182.115 188.988, 182.115 188.988, 166.720 190.463 C 158.253 191.274, 150.613 192.211, 149.744 192.545 C 147.857 193.269, 137.951 206.525, 127 222.981 C 121.891 230.658, 118.436 235.646, 114.522 241 C 112.310 244.025, 110.050 247.253, 109.500 248.174 C 108.950 249.094, 105.817 253.594, 102.538 258.174 C 99.259 262.753, 94.186 270.042, 91.264 274.371 C 88.343 278.700, 85.023 283.425, 83.888 284.871 C 82.752 286.317, 80.299 289.750, 78.436 292.500 C 65.663 311.352, 65.287 312.287, 69 316 C 70.597 317.597, 72.333 318, 77.619 318 C 84.237 318, 84.237 318, 81.809 321.250 C 76.572 328.260, 71.576 340.089, 72.553 343.167 C 73.078 344.823, 74.410 344.999, 86.317 344.995 C 97.208 344.990, 100.012 344.679, 102.444 343.201 C 104.064 342.218, 109.689 336.033, 114.944 329.457 C 124.501 317.500, 124.501 317.500, 132.776 316.610 C 137.328 316.120, 141.318 315.985, 141.644 316.310 C 141.969 316.635, 141.479 320.709, 140.556 325.363 C 139.632 330.018, 139.017 335.777, 139.188 338.163 C 139.500 342.500, 139.500 342.500, 165.500 342.149 C 193.546 341.770, 196.659 341.238, 198.840 336.452 C 200.390 333.050, 201.814 333.390, 202.187 337.250 C 202.500 340.500, 202.500 340.500, 215.415 340.303 C 222.518 340.195, 229.545 339.603, 231.030 338.988 C 233.708 337.878, 238.797 328.046, 247.862 306.464 C 254.536 290.576, 259.022 282.032, 261.565 280.366 C 263.005 279.422, 266.626 278.447, 269.611 278.199 C 272.595 277.952, 275.280 277.356, 275.577 276.875 C 276.961 274.636, 278.917 276.507, 280.911 281.977 C 282.110 285.265, 284.167 289.233, 285.481 290.795 C 287.639 293.360, 287.859 294.505, 287.740 302.568 C 287.553 315.268, 289.835 321.780, 297 328.989 C 304.579 336.615, 310.105 338.538, 324 338.383 C 332.227 338.291, 336.232 337.717, 342.500 335.733 C 356.894 331.178, 359.638 329.637, 361.026 325.330 C 363.179 318.649, 365.374 317.225, 366.986 321.462 C 369.222 327.345, 373.199 331.774, 378.787 334.605 C 384.020 337.257, 385.341 337.491, 394.500 337.394 C 402.481 337.310, 405.824 336.794, 411.056 334.839 C 421.203 331.047, 429.693 325.874, 439.362 317.590 C 444.235 313.416, 448.509 310.005, 448.861 310.011 C 449.212 310.017, 451.093 313.274, 453.040 317.249 C 456.961 325.254, 463.242 331.015, 470.500 333.262 C 477.109 335.307, 494.371 334.649, 502 332.061 C 511.257 328.920, 520.378 323.728, 528.754 316.829 C 538.156 309.086, 539.301 309.292, 540.158 318.884 C 540.547 323.232, 541.417 326.845, 542.283 327.712 C 543.441 328.870, 546.619 329.154, 557.380 329.063 C 572.658 328.933, 575.297 328.301, 577.301 324.293 C 578.632 321.631, 587.403 294.999, 608.356 230 C 621.942 187.852, 621.373 189.972, 620.561 184.559 C 619.988 180.739, 619.283 179.499, 616.922 178.161 C 614.481 176.776, 614.036 175.940, 614.247 173.136 C 614.434 170.648, 613.979 169.476, 612.500 168.636 C 609.516 166.941, 609.223 166.200, 609.737 161.645 C 610.095 158.467, 609.727 156.885, 608.189 154.988 C 606.384 152.761, 605.428 152.500, 599.085 152.500 C 591.999 152.500, 591.999 152.500, 591.617 141.500 C 591.177 128.788, 588.977 120.917, 581.671 105.914 C 578.372 99.140, 575.602 95.072, 571.793 91.408 C 565.443 85.299, 553.935 77.982, 550.775 78.045 C 548.932 78.082, 549.281 78.509, 552.607 80.295 M 583.712 160.377 C 571.689 161.635, 571.870 161.512, 569.484 170 C 567.480 177.127, 558.055 206.884, 552.538 223.500 C 538.105 266.972, 533.525 282.076, 534.180 284.041 C 534.758 285.773, 557.786 285.360, 560.528 283.569 C 561.903 282.671, 563.461 279.064, 565.364 272.372 C 566.908 266.942, 569.441 258.450, 570.993 253.500 C 572.544 248.550, 575.925 237.525, 578.505 229 C 581.085 220.475, 584.546 209.225, 586.197 204 C 591.359 187.660, 598.186 164.621, 598.718 161.750 C 599.308 158.563, 600.238 158.648, 583.712 160.377 M 394 168.128 C 380.984 169.071, 358.783 171.987, 350.500 173.842 C 312.140 182.432, 258.744 201.970, 252.729 209.617 C 251.698 210.928, 250.213 212, 249.427 212 C 248.642 212, 248 212.346, 248 212.769 C 248 213.857, 262.948 213.098, 266.191 211.846 C 270.702 210.103, 278.222 210.350, 282.748 212.388 C 286.086 213.892, 287.275 215.153, 288.581 218.574 C 289.484 220.938, 290.793 223.090, 291.489 223.357 C 292.211 223.634, 294.913 220.974, 297.770 217.172 C 305.503 206.885, 313.006 198.626, 318.500 194.356 C 328.322 186.721, 337.909 180.855, 344.426 178.491 C 348.066 177.171, 351.496 175.812, 352.047 175.471 C 352.598 175.131, 358.178 174.256, 364.447 173.527 C 373.856 172.433, 377.125 172.430, 383.173 173.508 C 391.781 175.043, 396.812 177.029, 399.435 179.928 C 401.063 181.727, 401.174 182.526, 400.226 185.615 C 399.216 188.907, 399.340 189.411, 401.707 191.605 C 403.129 192.922, 404.875 194, 405.587 194 C 407.772 194, 407.967 195.460, 406.452 200.494 C 405.651 203.154, 405.183 205.517, 405.411 205.745 C 405.640 205.973, 406.998 205.392, 408.431 204.453 C 411.390 202.514, 425.914 201.310, 433.186 202.401 C 440.313 203.469, 449.179 209.898, 452.626 216.495 C 454.489 220.061, 456.134 221.996, 457.302 221.998 C 458.293 221.999, 462.393 218.963, 466.412 215.250 C 478.524 204.061, 484.285 200.604, 496.997 196.895 C 505.335 194.463, 517.317 194.462, 526.219 196.893 C 535.918 199.542, 536.638 198.230, 528.750 192.280 C 512.681 180.159, 492.459 173.202, 462.500 169.489 C 447.726 167.658, 410.662 166.922, 394 168.128 M 358 180.535 C 332.627 185.908, 308.359 206.058, 294.212 233.500 C 288.313 244.943, 285.623 255.429, 285.747 266.500 C 285.939 283.634, 293.508 293.200, 309.890 297.012 C 319.121 299.161, 335.756 296.955, 345.727 292.261 C 349.395 290.535, 349.577 290.192, 352.257 279.992 C 356.990 261.979, 357.200 263.489, 350.384 266.542 C 340.247 271.081, 339.664 271.238, 332.478 271.345 C 327.145 271.425, 324.619 270.970, 321.978 269.452 C 317.694 266.991, 314 260.067, 314 254.498 C 314 237.529, 329.012 214.795, 345.253 207.170 C 351.228 204.365, 353.014 204, 360.767 204 C 367.778 204, 370.318 204.423, 373.476 206.115 C 376.604 207.791, 377.517 207.947, 377.875 206.865 C 378.124 206.114, 380.874 200.415, 383.987 194.200 C 387.641 186.906, 389.267 182.653, 388.574 182.204 C 386.460 180.833, 376.392 179.129, 370.500 179.144 C 367.200 179.152, 361.575 179.778, 358 180.535 M 256.315 185.174 C 253.463 186.298, 250.865 187.909, 250.542 188.752 C 249.570 191.285, 250.861 191.479, 253.318 189.171 C 254.589 187.977, 256.050 186.990, 256.564 186.978 C 257.079 186.966, 258.625 186.076, 260 185 C 263.069 182.599, 262.814 182.611, 256.315 185.174 M 226.500 186.781 C 216.042 189.038, 207 198.843, 207 207.927 C 207 221.917, 230.675 212.293, 234.134 196.898 C 234.861 193.663, 234.729 192.235, 233.533 190.410 C 231.635 187.514, 229.120 186.216, 226.500 186.781 M 167 196.656 C 165.075 196.841, 160.726 197.251, 157.336 197.567 C 151.624 198.099, 150.987 198.410, 148.644 201.820 C 147.253 203.844, 144.507 207.750, 142.543 210.500 C 140.578 213.250, 136.840 218.604, 134.235 222.397 C 131.631 226.190, 128.150 231.208, 126.500 233.548 C 124.850 235.888, 121.509 240.659, 119.077 244.151 C 109.349 258.113, 107.551 260.663, 104.585 264.709 C 102.888 267.024, 100.375 270.539, 99 272.520 C 97.625 274.500, 94.138 279.251, 91.250 283.076 C 88.362 286.901, 86 290.273, 86 290.570 C 86 291.633, 77.629 303.516, 76.328 304.300 C 75.598 304.740, 75 305.689, 75 306.410 C 75 307.430, 77.164 307.629, 84.750 307.306 C 90.112 307.078, 95.400 306.690, 96.500 306.444 C 98.255 306.052, 105.327 296.103, 111.560 285.255 C 113.746 281.453, 114.718 281.221, 131.212 280.584 C 144.273 280.079, 143.473 279.308, 140.977 290 C 140.527 291.925, 139.847 295.932, 139.465 298.905 C 138.770 304.311, 138.770 304.311, 145.635 303.662 C 149.411 303.306, 154.795 303.011, 157.601 303.007 C 163.260 302.999, 162.067 307.246, 168.561 264 C 172.246 239.466, 175.908 213.985, 176.467 209 C 176.806 205.975, 177.329 201.813, 177.630 199.750 C 178.176 196, 178.176 196, 174.338 196.160 C 172.227 196.248, 168.925 196.471, 167 196.656 M 501.495 201.969 C 496.108 203.103, 484.206 207.854, 480.500 210.349 C 470.757 216.908, 461.411 227.661, 455.493 239.119 C 443.759 261.838, 446.659 281.569, 462.852 289.182 C 469.118 292.128, 484.835 292.355, 493 289.618 C 517.006 281.569, 535.838 257.676, 538.411 232 C 540.201 214.136, 530.843 202.970, 512.993 201.671 C 508.872 201.371, 503.698 201.505, 501.495 201.969 M 413.500 208.922 C 405.399 210.282, 395.555 215.768, 385.561 224.489 C 370.557 237.583, 360.195 260.860, 362.620 276.022 C 363.516 281.631, 368.670 288.872, 374.217 292.318 C 387.365 300.484, 412.659 293.827, 427.558 278.279 C 443.242 261.910, 451.716 236.944, 446.398 222.770 C 444.121 216.703, 437.183 210.617, 430.887 209.163 C 425.494 207.918, 419.936 207.841, 413.500 208.922 M 272 216.907 C 266.585 217.676, 259.485 222.342, 254.311 228.532 C 252.257 230.990, 250.256 233, 249.864 233 C 249.472 233, 250.017 230.536, 251.076 227.525 C 253.753 219.908, 253.726 219.840, 248.250 220.529 C 245.637 220.859, 241.250 221.244, 238.500 221.387 C 234.614 221.588, 233.423 222.045, 233.155 223.437 C 232.633 226.142, 206.835 290.233, 203.449 297.237 C 202.455 299.293, 201.835 301.167, 202.071 301.401 C 203.088 302.412, 223.312 300.115, 224.546 298.848 C 225.268 298.107, 226.735 295.250, 227.807 292.500 C 242.364 255.156, 246.462 247.826, 255.292 243.352 C 259.415 241.263, 261.052 240.957, 265.120 241.516 C 268.743 242.015, 270 241.862, 270 240.922 C 270 239.483, 274.084 228.620, 277.030 222.223 C 278.114 219.871, 279 217.509, 279 216.973 C 279 215.932, 278.866 215.931, 272 216.907 M 147.735 229.750 C 131.109 254.989, 128 259.817, 128 260.404 C 128 261.177, 134.137 261.164, 141.694 260.374 C 148.353 259.678, 147.389 262.104, 152.563 233 C 153.394 228.325, 154.729 222.813, 155.529 220.750 C 156.329 218.688, 156.792 217, 156.559 217 C 156.325 217, 152.354 222.738, 147.735 229.750 M 210.166 223.454 C 200.833 224.500, 200.833 224.500, 197.811 231.500 C 196.149 235.350, 193.755 241.200, 192.489 244.500 C 189.919 251.201, 174.405 288.827, 171.117 296.333 C 169.953 298.991, 169 301.482, 169 301.868 C 169 303.055, 189.410 301.906, 190.559 300.654 C 191.141 300.019, 194.274 292.750, 197.521 284.500 C 200.767 276.250, 206.517 261.850, 210.299 252.500 C 219.237 230.397, 221.431 223.997, 220.369 223.123 C 219.891 222.729, 215.300 222.878, 210.166 223.454 M 491.193 226.416 C 483.123 233.965, 477 248.710, 477 260.595 C 477 264.035, 477.576 265.667, 479.455 267.545 C 489.019 277.110, 508.610 255.376, 509.694 234 C 510.180 224.403, 509.106 222.839, 501.600 222.217 C 496.276 221.775, 496.062 221.861, 491.193 226.416 M 408.262 229.334 C 398.444 234.496, 387.546 256.656, 389.353 267.786 C 390.048 272.069, 392.582 275, 395.590 275 C 408.083 275, 421.901 252.925, 421.097 234.250 C 420.943 230.674, 417.473 227.905, 413.483 228.174 C 411.580 228.302, 409.231 228.824, 408.262 229.334" stroke="none" fill="#0031ae" fill-rule="evenodd"/><path d="M 463 72.050 C 457.775 73.042, 451.389 73.886, 448.809 73.927 C 446.229 73.967, 443.840 74.450, 443.500 75 C 443.160 75.550, 441.498 76, 439.807 76 C 436.131 76, 428.100 78, 411.429 83.067 C 409.740 83.580, 407.179 84, 405.738 84 C 404.297 84, 402.840 84.450, 402.500 85 C 402.160 85.550, 400.859 86, 399.608 86 C 398.357 86, 397.028 86.305, 396.656 86.678 C 395.822 87.511, 382.966 91.939, 381.275 91.974 C 380.601 91.988, 377.103 93.350, 373.500 95 C 369.897 96.650, 366.286 98, 365.475 98 C 364.664 98, 364 98.357, 364 98.793 C 364 99.229, 361.910 100.144, 359.355 100.827 C 356.801 101.511, 353.538 102.858, 352.105 103.821 C 350.672 104.785, 347.700 106.150, 345.500 106.855 C 340.531 108.447, 332.613 112.245, 332.167 113.250 C 331.983 113.662, 331.280 114, 330.604 114 C 329.351 114, 322.113 117.133, 318.500 119.239 C 317.400 119.881, 313.800 121.727, 310.500 123.342 C 307.200 124.958, 303.375 127.048, 302 127.987 C 300.625 128.926, 296.800 131.189, 293.500 133.015 C 290.200 134.841, 285.137 137.644, 282.250 139.243 C 279.363 140.842, 277 142.566, 277 143.075 C 277 143.584, 276.122 144, 275.050 144 C 273.977 144, 272.699 144.715, 272.210 145.590 C 271.721 146.464, 271.136 147.110, 270.910 147.025 C 269.934 146.658, 267.054 148.279, 267.474 148.959 C 268.055 149.898, 263.144 152.207, 262.030 151.518 C 261.579 151.240, 260.941 151.712, 260.612 152.569 C 260.254 153.501, 259.509 153.823, 258.757 153.371 C 257.809 152.802, 257.820 153.011, 258.804 154.226 C 259.940 155.628, 259.798 155.802, 257.698 155.571 C 255.834 155.367, 255.312 155.763, 255.394 157.320 C 255.504 159.410, 258 161.042, 258 159.024 C 258 158.396, 258.450 158.160, 259 158.500 C 259.550 158.840, 260 158.630, 260 158.034 C 260 157.438, 261.152 156.512, 262.560 155.977 C 263.968 155.442, 264.861 154.584, 264.544 154.071 C 264.227 153.558, 264.425 152.856, 264.984 152.510 C 265.543 152.165, 266.015 152.471, 266.033 153.191 C 266.052 153.911, 267.002 153.375, 268.146 152 C 269.290 150.625, 270.400 149.613, 270.613 149.750 C 271.653 150.422, 273.070 149.722, 277.060 146.565 C 279.447 144.675, 281.729 143.333, 282.131 143.581 C 282.533 143.829, 283.147 143.572, 283.494 143.009 C 284.947 140.658, 338.658 114.825, 346.500 112.706 C 348.936 112.047, 361.731 107.342, 364.500 106.086 C 367.698 104.636, 376.727 102, 378.497 102 C 379.428 102, 379.827 101.528, 379.434 100.893 C 378.968 100.139, 379.467 100.013, 381 100.500 C 382.411 100.948, 383.020 100.841, 382.632 100.213 C 382.292 99.663, 383.023 99.190, 384.257 99.163 C 388.680 99.064, 392.977 97.772, 392.335 96.733 C 391.981 96.160, 392.169 95.986, 392.754 96.348 C 393.338 96.709, 398.245 96.081, 403.658 94.952 C 424.581 90.587, 427.940 90.029, 442 88.586 C 451.748 87.585, 461.580 87.280, 472 87.657 C 480.525 87.965, 488.379 88.189, 489.454 88.155 C 490.529 88.121, 491.890 88.494, 492.479 88.983 C 493.068 89.472, 495.859 90.012, 498.681 90.183 C 501.503 90.355, 503.632 90.786, 503.412 91.143 C 503.192 91.499, 503.721 92.063, 504.588 92.395 C 506.961 93.306, 507.691 93.095, 506 91.986 C 504.949 91.297, 505.540 91.203, 507.978 91.672 C 509.891 92.040, 512.152 93.201, 513.002 94.251 C 514.044 95.538, 516.009 96.229, 519.024 96.368 C 521.835 96.499, 523.411 97.013, 523.262 97.752 C 523.131 98.399, 523.659 98.684, 524.435 98.386 C 525.235 98.079, 526.326 98.740, 526.953 99.912 C 528.086 102.029, 533.360 105.307, 534.231 104.436 C 534.497 104.170, 535.342 104.750, 536.107 105.726 C 537.399 107.371, 537.355 107.394, 535.500 106.048 C 533.752 104.779, 533.664 104.779, 534.800 106.048 C 535.515 106.847, 536.527 107.556, 537.050 107.625 C 537.572 107.694, 538.394 107.806, 538.875 107.875 C 539.356 107.944, 540 109.237, 540.305 110.750 C 540.610 112.263, 542.241 115.044, 543.930 116.930 C 547.090 120.461, 547.738 121.574, 546.011 120.507 C 545.445 120.157, 545.276 120.557, 545.616 121.442 C 545.943 122.293, 546.682 122.697, 547.259 122.340 C 547.857 121.970, 548.014 122.169, 547.623 122.801 C 547.245 123.412, 547.626 125.562, 548.468 127.578 C 549.311 129.594, 550 132.727, 550 134.539 C 550 136.351, 550.506 138.002, 551.125 138.208 C 551.867 138.456, 551.996 139.743, 551.503 141.985 C 550.802 145.180, 550.675 145.269, 549.424 143.443 C 547.231 140.245, 543.700 137.067, 542.893 137.566 C 542.023 138.104, 540.654 136.191, 540.343 134 C 540.076 132.121, 531.907 124.939, 530.810 125.618 C 530.364 125.893, 530 125.615, 530 125 C 530 124.385, 529.597 124.131, 529.105 124.435 C 528.612 124.740, 527.957 124.329, 527.647 123.524 C 526.956 121.722, 514.523 115.961, 510.752 115.694 C 509.241 115.587, 508.003 115.234, 508.002 114.908 C 507.998 113.657, 499.701 111.907, 496.799 112.544 C 494.466 113.057, 493.935 112.914, 494.539 111.937 C 495.087 111.049, 494.858 110.841, 493.786 111.252 C 492.938 111.577, 491.731 111.331, 491.104 110.704 C 490.430 110.030, 487.008 109.624, 482.732 109.711 C 478.499 109.798, 476.312 109.541, 477.459 109.093 C 483.986 106.541, 424.318 107.456, 416 110.036 C 412.161 111.226, 411.364 111.367, 402.323 112.444 C 398.618 112.885, 395.937 113.722, 395.625 114.534 C 395.280 115.434, 393.491 115.857, 390.303 115.795 C 383.988 115.670, 378.796 116.861, 379.648 118.239 C 380.073 118.927, 379.573 119.122, 378.258 118.778 C 374.760 117.863, 354.639 123.606, 355.644 125.232 C 356.079 125.936, 355.558 126.118, 354.156 125.751 C 352.970 125.441, 352 125.622, 352 126.153 C 352 126.684, 351.550 126.840, 351 126.500 C 350.450 126.160, 349.438 126.233, 348.750 126.663 C 348.063 127.092, 346.954 127.527, 346.287 127.628 C 343.267 128.087, 331.437 132.393, 330.888 133.234 C 330.552 133.749, 329.877 134.120, 329.388 134.057 C 328.306 133.918, 316.700 138.148, 316 138.937 C 315.725 139.247, 314.825 139.625, 314 139.778 C 313.175 139.932, 311.600 140.469, 310.500 140.972 C 309.400 141.475, 302.499 144.626, 295.165 147.973 C 279.930 154.925, 258.822 165.689, 258.032 166.909 C 257.739 167.361, 256.375 168.067, 255 168.478 C 252.918 169.101, 242.003 175.670, 241.999 176.303 C 241.998 176.412, 244.474 176.346, 247.500 176.157 C 251.069 175.935, 252.772 175.440, 252.345 174.750 C 251.915 174.054, 252.521 173.896, 254.094 174.293 C 256.448 174.887, 256.457 174.866, 254.500 173.316 C 253.144 172.241, 253.018 171.908, 254.109 172.280 C 254.994 172.582, 258.819 171.306, 262.609 169.445 C 268.922 166.345, 273.401 164.826, 270.143 166.890 C 269.268 167.445, 269.155 167.978, 269.824 168.391 C 270.395 168.744, 271.144 168.575, 271.490 168.016 C 271.835 167.457, 272.991 167, 274.059 167 C 275.127 167, 276 166.325, 276 165.500 C 276 164.498, 277.002 164, 279.014 164 C 280.671 164, 282.809 163.594, 283.764 163.097 C 284.719 162.601, 287.413 161.629, 289.750 160.937 C 292.087 160.246, 294 159.302, 294 158.840 C 294 158.378, 294.337 158.107, 294.750 158.238 C 295.163 158.369, 296.850 157.984, 298.500 157.383 C 300.150 156.782, 304.875 155.212, 309 153.895 C 313.125 152.578, 316.725 151.275, 317 151 C 317.275 150.725, 317.950 150.500, 318.500 150.500 C 320.511 150.500, 329.604 147.719, 333.357 145.956 C 335.478 144.960, 337.800 144.370, 338.517 144.645 C 339.233 144.920, 341.153 144.455, 342.783 143.612 C 344.413 142.769, 346.062 142.396, 346.448 142.782 C 346.834 143.168, 347.605 142.670, 348.162 141.675 C 348.793 140.548, 350.176 139.932, 351.837 140.040 C 357.635 140.415, 360.561 140.008, 359.031 139.040 C 358.018 138.400, 359.148 138.123, 362.669 138.151 C 365.478 138.172, 368.697 137.697, 369.822 137.095 C 370.948 136.493, 374.175 136, 376.993 136 C 380.571 136, 381.906 135.656, 381.414 134.862 C 380.916 134.055, 381.699 133.902, 384.105 134.337 C 385.972 134.674, 389.300 134.459, 391.500 133.859 C 393.700 133.259, 399.550 132.489, 404.500 132.149 C 422.708 130.898, 465.656 131.635, 466.633 133.216 C 466.900 133.647, 468.554 134.016, 470.309 134.036 C 472.064 134.055, 476.130 134.700, 479.345 135.468 C 482.560 136.236, 485.897 136.593, 486.759 136.262 C 487.639 135.925, 488.067 136.083, 487.734 136.622 C 487.407 137.151, 490.372 138.587, 494.323 139.814 C 498.274 141.040, 503.725 143.113, 506.437 144.420 C 509.148 145.727, 512.072 146.545, 512.934 146.239 C 513.795 145.932, 514.159 146.057, 513.742 146.515 C 512.671 147.694, 517.968 150.950, 519.807 150.244 C 520.883 149.831, 521.088 150.048, 520.510 150.985 C 519.990 151.826, 520.079 152.069, 520.755 151.651 C 522.415 150.625, 525.177 152.096, 524.569 153.681 C 524.269 154.464, 524.417 154.861, 524.898 154.563 C 525.379 154.266, 526.007 154.917, 526.293 156.011 C 526.579 157.105, 527.556 158, 528.465 158 C 529.374 158, 529.840 158.450, 529.500 159 C 529.160 159.550, 529.659 160, 530.608 160 C 531.557 160, 532.036 160.297, 531.673 160.661 C 531.309 161.024, 531.986 161.812, 533.177 162.411 C 534.368 163.010, 535.542 164.175, 535.786 165 C 536.063 165.939, 535.599 165.751, 534.544 164.500 C 532.992 162.659, 532.994 162.747, 534.566 165.616 C 535.505 167.330, 536.999 168.680, 537.887 168.616 C 539.010 168.535, 539.543 169.411, 539.643 171.500 C 539.823 175.285, 542.866 182.450, 543.040 179.500 C 543.123 178.089, 543.308 177.942, 543.669 179 C 543.949 179.825, 544.876 182.048, 545.727 183.940 C 547.274 187.380, 547.274 187.380, 549.181 185.025 C 550.229 183.730, 550.848 182.046, 550.555 181.283 C 550.262 180.520, 550.373 180.113, 550.801 180.377 C 551.594 180.867, 553.728 178.007, 556.793 172.350 C 557.732 170.618, 559.784 167.376, 561.353 165.145 C 562.922 162.915, 564.272 159.983, 564.353 158.629 C 564.434 157.275, 564.856 156.242, 565.291 156.334 C 565.725 156.425, 567.453 153.125, 569.129 149 C 571.412 143.381, 572.159 139.995, 572.108 135.500 C 572.065 131.795, 572.367 130.021, 572.897 130.861 C 573.369 131.609, 573.572 133.184, 573.349 134.361 C 573.021 136.090, 573.155 136.021, 574.044 134 C 575.642 130.369, 576.607 110, 575.181 110 C 574.566 110, 574.289 109.411, 574.565 108.690 C 574.842 107.970, 573.140 103.609, 570.784 98.998 C 567.595 92.759, 565.676 90.190, 563.277 88.948 C 561.504 88.031, 560.269 87.064, 560.533 86.801 C 561.992 85.341, 552.446 80.297, 544.500 78.328 C 543.400 78.056, 541.600 77.466, 540.500 77.017 C 535.389 74.933, 527.913 72.852, 519.174 71.080 C 510.429 69.307, 474.151 69.933, 463 72.050 M 539.364 75.506 C 540.940 76.328, 543.276 77, 544.555 77 C 545.835 77, 547.165 77.457, 547.510 78.016 C 547.856 78.575, 548.564 78.769, 549.085 78.447 C 550.959 77.289, 548.806 76, 545 76 C 542.865 76, 540.840 75.550, 540.500 75 C 540.160 74.450, 539.121 74.003, 538.191 74.006 C 537.121 74.010, 537.552 74.561, 539.364 75.506 M 244.131 165.342 C 243.519 166.080, 243.351 167.023, 243.759 167.437 C 244.166 167.851, 243.600 168.035, 242.500 167.845 C 241.300 167.638, 240.600 168, 240.750 168.750 C 240.887 169.438, 240.262 170, 239.360 170 C 237.795 170, 235.099 172.654, 235.032 174.261 C 235.014 174.680, 238.150 172.731, 242 169.931 C 245.850 167.131, 249 164.651, 249 164.420 C 249 163.399, 245.137 164.130, 244.131 165.342 M 229.750 176.758 C 227.010 178.457, 226.150 180, 227.944 180 C 228.464 180, 230.151 178.889, 231.694 177.532 C 234.920 174.694, 233.799 174.248, 229.750 176.758 M 358.264 203.718 C 359.784 203.947, 362.034 203.941, 363.264 203.704 C 364.494 203.467, 363.250 203.279, 360.500 203.286 C 357.750 203.294, 356.744 203.488, 358.264 203.718" stroke="none" fill="#22e1e3" fill-rule="evenodd"/></svg>